<?xml version="1.0" encoding="UTF-8" standalone="no"?>
<!-- Created with Inkscape (http://www.inkscape.org/) -->
<svg
   xmlns:dc="http://purl.org/dc/elements/1.1/"
   xmlns:cc="http://creativecommons.org/ns#"
   xmlns:rdf="http://www.w3.org/1999/02/22-rdf-syntax-ns#"
   xmlns:svg="http://www.w3.org/2000/svg"
   xmlns="http://www.w3.org/2000/svg"
   xmlns:sodipodi="http://sodipodi.sourceforge.net/DTD/sodipodi-0.dtd"
   xmlns:inkscape="http://www.inkscape.org/namespaces/inkscape"
   width="32"
   height="32"
   id="svg3305"
   sodipodi:version="0.32"
   inkscape:version="0.46"
   version="1.0"
   sodipodi:docname="WolkeOK.svg"
   inkscape:output_extension="org.inkscape.output.svg.inkscape">
  <defs
     id="defs3307">
    <inkscape:perspective
       sodipodi:type="inkscape:persp3d"
       inkscape:vp_x="0 : 526.18109 : 1"
       inkscape:vp_y="0 : 1000 : 0"
       inkscape:vp_z="744.09448 : 526.18109 : 1"
       inkscape:persp3d-origin="372.04724 : 350.78739 : 1"
       id="perspective3313" />
  </defs>
  <sodipodi:namedview
     id="base"
     pagecolor="#ffffff"
     bordercolor="#666666"
     borderopacity="1.0"
     inkscape:pageopacity="0.0"
     inkscape:pageshadow="2"
     inkscape:zoom="5.6"
     inkscape:cx="-10.410365"
     inkscape:cy="6.9704928"
     inkscape:document-units="px"
     inkscape:current-layer="layer1"
     showgrid="false"
     inkscape:window-width="1600"
     inkscape:window-height="1125"
     inkscape:window-x="0"
     inkscape:window-y="25" />
  <metadata
     id="metadata3310">
    <rdf:RDF>
      <cc:Work
         rdf:about="">
        <dc:format>image/svg+xml</dc:format>
        <dc:type
           rdf:resource="http://purl.org/dc/dcmitype/StillImage" />
      </cc:Work>
    </rdf:RDF>
  </metadata>
  <g
     inkscape:label="Ebene 1"
     inkscape:groupmode="layer"
     id="layer1">
    <g
       id="g3834"
       transform="matrix(1.0743694,0,0,1.0743694,-530.2386,-628.84736)">
      <path
         style="fill:#ffffff;fill-opacity:1;fill-rule:evenodd;stroke:none;stroke-width:1px;stroke-linecap:butt;stroke-linejoin:miter;stroke-opacity:1"
         d="M 505.4944,594.08597 C 503.22382,588.62318 492.98564,593.79093 499.69388,598.94222 C 492.10051,601.02268 499.27414,608.72554 504.28034,606.22659 C 510.42433,615.95043 522.6997,604.48555 515.54413,600.49352 C 521.81679,596.21058 510.38437,588.31918 505.4944,594.08597 z"
         id="path3199"
         sodipodi:nodetypes="ccccc" />
      <path
         sodipodi:nodetypes="cscscsssssssc"
         id="path3259"
         d="M 497.14342,600.55462 C 497.14342,600.55462 495.26842,603.05462 497.41128,604.57248 C 499.55414,606.09033 503.12557,606.62605 504.28628,606.35819 C 505.55093,608.41037 510.09282,612.09031 513.75057,608.85819 C 517.40115,605.6324 518.66128,603.1439 515.62557,600.6439 C 516.51842,598.94748 518.572,597.34033 517.23271,595.46533 C 515.89342,593.59033 511.33985,591.09033 507.947,592.78676 C 504.55414,594.48319 512.322,592.42962 513.66128,594.30462 C 515.00057,596.17962 511.16128,597.42962 512.14342,599.21533 C 513.12557,601.00105 515.08985,604.3939 512.14342,605.55462 C 509.197,606.71533 509.01842,605.0189 506.697,604.75105 C 504.37557,604.48319 501.25057,606.2689 499.28628,604.48319 C 497.322,602.69748 497.05414,600.6439 497.14342,600.55462 z"
         style="fill:#88c7ff;fill-opacity:1;fill-rule:evenodd;stroke:none;stroke-width:1px;stroke-linecap:butt;stroke-linejoin:miter;stroke-opacity:1" />
      <path
         style="fill:#000000;fill-opacity:1;fill-rule:evenodd;stroke:none;stroke-width:1px;stroke-linecap:butt;stroke-linejoin:miter;stroke-opacity:1"
         d="M 515.64253,600.46187 C 523.7546,594.46679 509.41089,588.93548 505.74703,593.81285 C 510.08369,590.16185 520.74108,593.93471 515.64253,600.46187 z"
         id="path3201"
         sodipodi:nodetypes="ccc" />
      <path
         sodipodi:nodetypes="ccc"
         id="path3203"
         d="M 514.98299,599.99738 C 524.19243,605.89543 508.78405,615.66902 504.28115,606.28984 C 509.04746,613.6738 522.01206,605.66124 514.98299,599.99738 z"
         style="fill:#000000;fill-opacity:1;fill-rule:evenodd;stroke:none;stroke-width:1px;stroke-linecap:butt;stroke-linejoin:miter;stroke-opacity:1" />
      <path
         style="fill:#000000;fill-opacity:1;fill-rule:evenodd;stroke:none;stroke-width:1px;stroke-linecap:butt;stroke-linejoin:miter;stroke-opacity:1"
         d="M 505.4944,594.01852 C 502.30749,589.93792 494.33177,593.71501 499.62643,598.97594 C 492.88164,594.35576 502.88079,588.28545 505.4944,594.01852 z"
         id="path3205"
         sodipodi:nodetypes="ccc" />
      <path
         style="fill:#000000;fill-opacity:1;fill-rule:evenodd;stroke:none;stroke-width:1px;stroke-linecap:butt;stroke-linejoin:miter;stroke-opacity:1"
         d="M 505.79791,605.75445 C 498.78333,609.83505 491.60013,600.86448 499.96367,598.80732 C 494.56784,600.3249 495.68073,607.84534 505.79791,605.75445 z"
         id="path3207"
         sodipodi:nodetypes="ccc" />
    </g>
    <path
       style="fill:#00a608;fill-opacity:1;fill-rule:evenodd;stroke:none;stroke-width:1px;stroke-linecap:butt;stroke-linejoin:miter;stroke-opacity:1"
       d="M 10.302212,16.975708 C 10.804762,16.198497 12.423298,16.537271 14.587926,17.422137 L 17.891497,22.868566 C 17.04808,21.60344 21.113216,9.9198657 27.608319,5.2531869 C 28.258268,4.7862039 28.428558,5.3665139 29.230783,5.1899929 C 23.962926,12.243566 19.587926,23.136423 19.141497,27.957851 C 18.695069,32.77928 10.12364,16.975708 10.302212,16.975708 z"
       id="path3895"
       sodipodi:nodetypes="cccscsc" />
    <path
       style="fill:#005603;fill-opacity:1;fill-rule:evenodd;stroke:none;stroke-width:1px;stroke-linecap:butt;stroke-linejoin:miter;stroke-opacity:1"
       d="M 13.853702,17.143579 C 14.453481,17.269848 14.57975,17.175147 14.958557,17.553954 C 15.337364,17.932761 17.831178,22.541582 17.831178,22.541582 L 17.831178,23.709571 L 13.853702,17.143579 z"
       id="path3897" />
    <path
       style="fill:#005603;fill-opacity:1;fill-rule:evenodd;stroke:none;stroke-width:1px;stroke-linecap:butt;stroke-linejoin:miter;stroke-opacity:1"
       d="M 28.4375,5.0803571 C 28.4375,5.0803571 29.598214,4.5446428 29.508928,5.0803571 C 29.419643,5.6160714 25.9375,9.7678577 23.4375,15.437501 C 20.9375,21.107144 19.285714,28.160715 19.107143,28.473215 C 18.928571,28.785715 18.303571,29.142858 18.392857,28.607144 C 18.482142,28.071429 20.320394,19.163828 23.348214,13.830358 C 26.255313,8.7095382 28.872426,5.1288339 28.4375,5.0803571 z"
       id="path3899"
       sodipodi:nodetypes="csssssc" />
  </g>
</svg>
