<?xml version="1.0" encoding="UTF-8" standalone="no"?>
<!-- Created with Inkscape (http://www.inkscape.org/) -->
<svg
   xmlns:dc="http://purl.org/dc/elements/1.1/"
   xmlns:cc="http://creativecommons.org/ns#"
   xmlns:rdf="http://www.w3.org/1999/02/22-rdf-syntax-ns#"
   xmlns:svg="http://www.w3.org/2000/svg"
   xmlns="http://www.w3.org/2000/svg"
   xmlns:xlink="http://www.w3.org/1999/xlink"
   xmlns:sodipodi="http://sodipodi.sourceforge.net/DTD/sodipodi-0.dtd"
   xmlns:inkscape="http://www.inkscape.org/namespaces/inkscape"
   width="32"
   height="32"
   id="svg2"
   sodipodi:version="0.32"
   inkscape:version="0.46"
   version="1.0"
   sodipodi:docname="chat_bla.svg"
   inkscape:output_extension="org.inkscape.output.svg.inkscape"
   inkscape:export-filename="/home/wolfgang/sf/p2pvpn/trunk/resources/images/chat_bla.png"
   inkscape:export-xdpi="45"
   inkscape:export-ydpi="45">
  <defs
     id="defs4">
    <linearGradient
       id="linearGradient3155">
      <stop
         style="stop-color:#ffffff;stop-opacity:1;"
         offset="0"
         id="stop3157" />
      <stop
         style="stop-color:#4c97ff;stop-opacity:1;"
         offset="1"
         id="stop3159" />
    </linearGradient>
    <inkscape:perspective
       sodipodi:type="inkscape:persp3d"
       inkscape:vp_x="0 : 526.18109 : 1"
       inkscape:vp_y="0 : 1000 : 0"
       inkscape:vp_z="744.09448 : 526.18109 : 1"
       inkscape:persp3d-origin="372.04724 : 350.78739 : 1"
       id="perspective10" />
    <radialGradient
       inkscape:collect="always"
       xlink:href="#linearGradient3155"
       id="radialGradient3237"
       gradientUnits="userSpaceOnUse"
       gradientTransform="matrix(2.2596819,2.3485053e-2,-1.8174044e-2,1.7486671,-420.68999,-512.96434)"
       cx="269.32465"
       cy="358.68118"
       fx="269.32465"
       fy="358.68118"
       r="113.22244" />
    <radialGradient
       inkscape:collect="always"
       xlink:href="#linearGradient3155"
       id="radialGradient3272"
       gradientUnits="userSpaceOnUse"
       gradientTransform="matrix(0.2133751,2.2176241e-3,-1.7161212e-3,0.1651215,-19.201975,-23.704237)"
       cx="269.32465"
       cy="358.68118"
       fx="269.32465"
       fy="358.68118"
       r="113.22244" />
  </defs>
  <sodipodi:namedview
     id="base"
     pagecolor="#ffffff"
     bordercolor="#666666"
     borderopacity="1.0"
     inkscape:pageopacity="0.0"
     inkscape:pageshadow="2"
     inkscape:zoom="5.6568543"
     inkscape:cx="-1.8953688"
     inkscape:cy="-8.0809482"
     inkscape:document-units="px"
     inkscape:current-layer="layer1"
     showgrid="false"
     inkscape:window-width="1279"
     inkscape:window-height="949"
     inkscape:window-x="0"
     inkscape:window-y="25" />
  <metadata
     id="metadata7">
    <rdf:RDF>
      <cc:Work
         rdf:about="">
        <dc:format>image/svg+xml</dc:format>
        <dc:type
           rdf:resource="http://purl.org/dc/dcmitype/StillImage" />
      </cc:Work>
    </rdf:RDF>
  </metadata>
  <g
     inkscape:label="Ebene 1"
     inkscape:groupmode="layer"
     id="layer1"
     transform="translate(-21.775125,-22.070555)">
    <path
       style="fill:#ffffff;fill-opacity:1;fill-rule:evenodd;stroke:none;stroke-width:1px;stroke-linecap:butt;stroke-linejoin:miter;stroke-opacity:1"
       d="M 31.694503,44.320533 C 31.694503,44.320533 22.024034,43.583736 22.760832,36.492058 C 23.49763,29.40038 33.444398,28.847781 36.575788,28.663582 C 39.707179,28.479383 50.574945,28.755682 52.04854,35.018462 C 53.522135,41.281243 47.627754,43.215336 41.917571,44.412633 C 36.207389,45.609929 39.43088,45.702028 37.404686,46.807225 C 35.378492,47.912422 27.550017,48.557119 28.839413,48.28082 C 30.128809,48.004521 31.418204,46.991424 31.510304,46.254627 C 31.602404,45.517829 31.694503,44.320533 31.694503,44.320533 z"
       id="path3299" />
    <g
       id="g3294"
       transform="matrix(1.3591124,5.4218468e-2,-5.4218468e-2,1.3591124,44.184764,-47.914466)">
      <path
         sodipodi:nodetypes="czcsccccccscccccccccz"
         id="path3179"
         d="M 1.066999,57.101013 C 0.10877673,57.127264 -0.17858197,58.129806 1.0186154,58.411374 C 2.2158128,58.692942 3.9076422,59.564785 4.7507561,60.881711 C 5.1084981,62.062295 4.163778,63.062839 3.4680886,63.894289 C 2.665993,64.859768 1.4715939,65.488245 0.21023655,65.52552 C -0.90121017,65.71095 -2.1140574,65.776306 -3.0736433,66.413672 C -3.7526319,67.171494 -3.8986242,68.41393 -4.9398611,68.818972 C -5.7362184,68.341216 -5.5060222,66.920913 -6.5470649,66.754244 C -8.2195542,66.8418 -10.040412,66.942351 -11.534245,66.042929 C -11.867794,66.336533 -10.886129,67.251036 -10.332886,67.290164 C -9.2746105,67.60073 -8.0882454,67.906431 -7.0047567,68.063542 C -5.8840338,68.231454 -6.1689396,69.291295 -6.650244,69.974525 C -7.015434,70.404739 -7.4921129,71.144197 -6.5267335,70.949256 C -5.5809814,70.811628 -4.6159961,70.755401 -3.6915489,70.506208 C -2.69162,70.21635 -1.7653164,69.579386 -1.2859501,68.637163 C -0.49452969,67.757184 0.81434237,67.954538 1.8383885,67.550229 C 3.7944858,67.082564 5.8812147,66.536363 7.2807379,64.984738 C 8.1342929,64.098345 8.8933288,62.742782 8.3007299,61.516659 C 7.7463895,60.324467 6.7757775,59.392772 5.8995213,58.434967 C 5.2835614,57.82344 4.5984314,57.2662 3.811377,56.889999 C 2.8935242,56.818476 2.0252213,57.074762 1.066999,57.101013 z"
         style="fill:#88c7ff;fill-opacity:1;fill-rule:evenodd;stroke:none;stroke-width:1px;stroke-linecap:butt;stroke-linejoin:miter;stroke-opacity:1" />
      <path
         sodipodi:nodetypes="csssssszz"
         transform="translate(21.775125,22.070555)"
         id="path3175"
         d="M -22.321428,45.482144 C -21.843183,45.732654 -12.991071,43.696428 -13.616071,40.035714 C -14.241072,36.375 -18.75,33.339286 -27.767857,35.035715 C -36.785714,36.732143 -35.651095,44.238044 -31.473214,45.258929 C -27.258774,46.288747 -27.8125,46.330357 -31.919643,45.392857 C -35.983899,44.465146 -38.150035,35.852915 -27.678571,34.366071 C -13.260781,32.318888 -12.926525,39.053138 -12.723214,40.258928 C -12.056246,44.21457 -21.316965,46.308036 -22.120536,46.308036 C -22.924107,46.308036 -22.790178,45.236608 -22.321428,45.482144 z"
         style="fill:#000000;fill-opacity:1;fill-rule:evenodd;stroke:none;stroke-width:1px;stroke-linecap:butt;stroke-linejoin:miter;stroke-opacity:1" />
      <path
         sodipodi:nodetypes="csssscss"
         transform="translate(21.775125,22.070555)"
         id="path3177"
         d="M -28.392857,46.151786 C -28.523863,47.359995 -28.587885,48.424727 -30.580357,48.696428 C -31.5625,48.830357 -31.559667,49.249707 -30.535714,49.276786 C -27.341172,49.361269 -22.633662,48.826136 -22.767857,46.285714 C -22.777707,46.102513 -23.121011,45.44337 -23.4375,46.241071 C -24.507766,48.938642 -28.616071,48.607142 -28.883928,48.651785 C -28.214285,48.339286 -27.857143,47.714285 -27.857143,46.375 C -27.857143,45.738865 -28.348214,45.740066 -28.392857,46.151786 z"
         style="fill:#000000;fill-opacity:1;fill-rule:evenodd;stroke:none;stroke-width:1px;stroke-linecap:butt;stroke-linejoin:miter;stroke-opacity:1" />
    </g>
    <g
       id="g3288"
       transform="matrix(1.7681622,0,0,1.7681622,41.326384,-74.157632)">
      <path
         id="path3185"
         d="M -6.0711222,61.294397 C -6.568284,60.743275 -7.3244389,60.551983 -7.8774999,60.072962 C -7.5191422,59.412252 -6.5867985,59.294881 -5.9704806,59.643217 C -5.0285118,59.892366 -3.992384,59.712277 -3.1036484,60.170829 C -2.8085211,60.76436 -3.3854085,61.297461 -3.822899,61.616663 C -4.2278878,61.802749 -5.1331813,62.444857 -4.3495834,62.758697 C -3.61106,62.99418 -2.6913242,63.118619 -2.2685063,63.85238 C -1.9104576,64.602271 -2.9417381,65.378551 -3.3677887,65.356904 C -4.362664,65.792173 -5.4979763,65.906662 -6.5676763,65.740279 C -7.0885,65.667901 -7.6188834,65.464995 -7.8710058,64.971213 C -8.1045591,64.590149 -8.256325,64.064943 -8.0410353,63.650422 C -7.6324533,63.16761 -6.9480786,63.6802 -6.8621485,64.180266 C -6.866197,64.706249 -6.3128674,65.022079 -5.8572625,65.134592 C -5.1866807,65.25639 -4.491821,65.211081 -3.8180479,65.129143 C -3.5764016,65.109382 -2.8235293,64.912384 -2.9535104,64.929355 C -3.2267597,64.962369 -3.3691368,65.358838 -3.4365095,65.032442 C -3.0098596,64.469619 -3.6099056,63.852393 -4.1415874,63.663783 C -4.7061924,63.415655 -5.6561958,63.610177 -5.8478176,62.844925 C -5.7228427,62.105344 -4.7463442,62.068112 -4.3399682,61.533183 C -3.7847723,60.916822 -4.6535296,60.277542 -5.2819959,60.43979 C -6.0300155,60.408159 -6.7914705,60.31951 -7.4994305,60.060756 C -7.30185,59.47853 -6.5910001,59.69482 -6.1893196,59.918224 C -5.6372964,59.995934 -4.9606166,60.766114 -5.659437,61.139495 C -5.8076434,61.181074 -5.9543348,61.180362 -6.0711222,61.294397 z"
         style="fill:#000000;fill-opacity:1;stroke:none;stroke-width:0.045;stroke-linecap:round;stroke-linejoin:round;stroke-miterlimit:4;stroke-dasharray:none;stroke-opacity:1" />
      <path
         id="path3189"
         d="M -5.312562,59.87259 C -5.3150443,60.821741 -5.0312172,61.75517 -5.1244196,62.706907 C -5.1001383,63.690236 -4.9734386,64.689576 -5.1650115,65.662689 C -5.4662165,66.355202 -6.6071177,65.807301 -6.1541809,65.150561 C -6.1172313,63.965805 -6.2238887,62.783508 -6.2623162,61.600247 C -6.4848433,61.093474 -6.4884238,60.298231 -5.8966622,60.046996 C -5.7050244,59.976854 -5.4711802,60.026264 -5.312562,59.87259 z"
         style="fill:#000000;fill-opacity:1;stroke:none;stroke-width:0.045;stroke-linecap:round;stroke-linejoin:round;stroke-miterlimit:4;stroke-dasharray:none;stroke-opacity:1" />
      <path
         id="path3191"
         d="M -0.81459217,60.130472 C -0.86238887,61.336293 -0.54258807,62.550137 -0.79516657,63.747568 C -0.38377487,64.16786 -0.40379607,65.273982 -1.1686815,65.20773 C -1.7854884,65.086107 -1.8959176,64.339068 -1.8330962,63.816415 C -1.7441031,62.957838 -1.7365423,62.071597 -1.9548328,61.230052 C -2.0055312,60.602868 -1.3590195,60.210764 -0.81459217,60.130472 z"
         style="fill:#000000;fill-opacity:1;stroke:none;stroke-width:0.045;stroke-linecap:round;stroke-linejoin:round;stroke-miterlimit:4;stroke-dasharray:none;stroke-opacity:1" />
      <path
         sodipodi:nodetypes="csccsccsszcccccc"
         id="path3194"
         d="M 2.0840517,61.668784 C 2.0113354,61.763358 1.9042125,61.828144 1.7950229,61.869019 C 1.3486534,61.855222 1.0858413,62.425703 1.6494012,62.488813 C 1.9382215,62.681166 2.0596017,62.973765 2.1195781,63.299071 C 2.033062,63.274993 1.9413733,63.23654 1.8545228,63.230256 C 1.2319357,63.229974 0.54891693,63.348036 0.086604526,63.795893 C -0.36897647,64.331691 0.11234363,65.171418 0.71706113,65.343598 C 1.2888095,65.543551 1.8013391,65.33472 2.3224849,65.079867 C 2.3342667,65.074104 2.3555795,65.089707 2.3673267,65.083862 C 2.7104927,65.172349 2.949878,64.974268 3.0759142,64.74022 C 3.199493,64.510732 3.1717145,64.000825 3.2206455,63.62317 C 3.485173,62.813982 2.9294176,61.842595 2.0840517,61.668784 z M 1.0731244,63.883796 C 1.6263279,63.897325 1.7904099,64.44671 2.0734119,64.831684 C 1.7343634,64.813468 1.3467628,64.710945 1.1636985,64.389042 C 0.93959223,64.310888 1.0399703,64.08494 1.0731244,63.883796 z"
         style="fill:#000000;fill-opacity:1;stroke:none;stroke-width:0.045;stroke-linecap:round;stroke-linejoin:round;stroke-miterlimit:4;stroke-dasharray:none;stroke-opacity:1" />
    </g>
  </g>
</svg>
