<?xml version="1.0" encoding="UTF-8" standalone="no"?>
<!-- Created with Inkscape (http://www.inkscape.org/) -->
<svg
   xmlns:dc="http://purl.org/dc/elements/1.1/"
   xmlns:cc="http://creativecommons.org/ns#"
   xmlns:rdf="http://www.w3.org/1999/02/22-rdf-syntax-ns#"
   xmlns:svg="http://www.w3.org/2000/svg"
   xmlns="http://www.w3.org/2000/svg"
   xmlns:sodipodi="http://sodipodi.sourceforge.net/DTD/sodipodi-0.dtd"
   xmlns:inkscape="http://www.inkscape.org/namespaces/inkscape"
   width="32"
   height="32"
   id="svg3305"
   sodipodi:version="0.32"
   inkscape:version="0.46"
   version="1.0"
   sodipodi:docname="Info.svg"
   inkscape:output_extension="org.inkscape.output.svg.inkscape">
  <defs
     id="defs3307">
    <inkscape:perspective
       sodipodi:type="inkscape:persp3d"
       inkscape:vp_x="0 : 526.18109 : 1"
       inkscape:vp_y="0 : 1000 : 0"
       inkscape:vp_z="744.09448 : 526.18109 : 1"
       inkscape:persp3d-origin="372.04724 : 350.78739 : 1"
       id="perspective3313" />
    <inkscape:perspective
       id="perspective3234"
       inkscape:persp3d-origin="372.04724 : 350.78739 : 1"
       inkscape:vp_z="744.09448 : 526.18109 : 1"
       inkscape:vp_y="0 : 1000 : 0"
       inkscape:vp_x="0 : 526.18109 : 1"
       sodipodi:type="inkscape:persp3d" />
    <inkscape:perspective
       id="perspective3294"
       inkscape:persp3d-origin="372.04724 : 350.78739 : 1"
       inkscape:vp_z="744.09448 : 526.18109 : 1"
       inkscape:vp_y="0 : 1000 : 0"
       inkscape:vp_x="0 : 526.18109 : 1"
       sodipodi:type="inkscape:persp3d" />
  </defs>
  <sodipodi:namedview
     id="base"
     pagecolor="#ffffff"
     bordercolor="#666666"
     borderopacity="1.0"
     inkscape:pageopacity="0.0"
     inkscape:pageshadow="2"
     inkscape:zoom="11.2"
     inkscape:cx="8.0500215"
     inkscape:cy="-1.9769475"
     inkscape:document-units="px"
     inkscape:current-layer="layer1"
     showgrid="false"
     inkscape:window-width="1600"
     inkscape:window-height="1125"
     inkscape:window-x="0"
     inkscape:window-y="25" />
  <metadata
     id="metadata3310">
    <rdf:RDF>
      <cc:Work
         rdf:about="">
        <dc:format>image/svg+xml</dc:format>
        <dc:type
           rdf:resource="http://purl.org/dc/dcmitype/StillImage" />
      </cc:Work>
    </rdf:RDF>
  </metadata>
  <g
     inkscape:label="Ebene 1"
     inkscape:groupmode="layer"
     id="layer1">
    <path
       sodipodi:type="arc"
       style="opacity:1;fill:#88c7ff;fill-opacity:1;stroke:none;stroke-width:1;stroke-linecap:round;stroke-linejoin:round;stroke-miterlimit:4;stroke-dasharray:none;stroke-opacity:1"
       id="path3154"
       sodipodi:cx="18.498419"
       sodipodi:cy="17.415922"
       sodipodi:rx="11.679889"
       sodipodi:ry="11.553619"
       d="M 30.178308,17.415922 A 11.679889,11.553619 0 1 1 6.8185301,17.415922 A 11.679889,11.553619 0 1 1 30.178308,17.415922 z"
       transform="translate(-2.0203051,-1.1364216)" />
    <path
       style="fill:#ffffff;fill-opacity:1;fill-rule:evenodd;stroke:none;stroke-width:1px;stroke-linecap:butt;stroke-linejoin:miter;stroke-opacity:1"
       d="M 14.500135,13.635279 C 15.759981,13.60567 16.448713,13.645362 17.710307,13.627851 C 19.423945,13.627851 18.934334,15.098513 18.934334,16.034391 C 18.934334,16.970267 18.689529,18.84202 18.689529,19.510504 C 18.689529,20.178987 18.934334,20.04529 19.913557,20.04529 C 20.892778,20.04529 20.916612,23.319001 19.692586,23.319001 C 18.468558,23.319001 14.542804,23.311051 13.931287,23.335713 C 11.551507,23.430415 11.598539,20.11771 13.808885,20.204984 C 14.796422,20.243976 14.962046,19.763042 14.962046,18.827165 C 14.962046,17.891289 14.527836,17.638751 14.038225,17.505054 C 12.64649,17.096192 11.572986,14.022034 14.500135,13.635279 z"
       id="path3164"
       sodipodi:nodetypes="ccssssssscc" />
    <path
       sodipodi:type="arc"
       style="opacity:1;fill:#ffffff;fill-opacity:1;stroke:none;stroke-width:1;stroke-linecap:round;stroke-linejoin:round;stroke-miterlimit:4;stroke-dasharray:none;stroke-opacity:1"
       id="path3166"
       sodipodi:cx="16.130873"
       sodipodi:cy="11.481277"
       sodipodi:rx="2.6832178"
       sodipodi:ry="2.588516"
       d="M 18.81409,11.481277 A 2.6832178,2.588516 0 1 1 13.447655,11.481277 A 2.6832178,2.588516 0 1 1 18.81409,11.481277 z"
       transform="matrix(0.9647059,0,0,0.7560976,0.7271613,1.7270243)" />
    <path
       style="fill:#3e98ce;fill-opacity:1;fill-rule:evenodd;stroke:none;stroke-width:1px;stroke-linecap:butt;stroke-linejoin:miter;stroke-opacity:1"
       d="M 15.252593,8.5288209 C 12.222135,8.7813589 12.474674,12.253759 15.000055,12.253759 C 14.239191,11.480917 13.912507,9.8824529 15.252593,8.5288209 z"
       id="path3160"
       sodipodi:nodetypes="ccc" />
    <path
       sodipodi:nodetypes="ccc"
       id="path3162"
       d="M 14.684382,13.51645 C 11.653924,13.785824 11.780194,17.55706 14.305575,17.55706 C 13.544711,16.732695 13.344296,14.960324 14.684382,13.51645 z"
       style="fill:#3e98ce;fill-opacity:1;fill-rule:evenodd;stroke:none;stroke-width:1px;stroke-linecap:butt;stroke-linejoin:miter;stroke-opacity:1" />
    <path
       sodipodi:nodetypes="cccc"
       id="path3168"
       d="M 13.926768,20.019306 C 10.906169,20.139164 11.697851,23.393914 13.67423,23.239168 C 11.016379,20.568054 16.718372,20.846958 14.627003,17.856582 C 14.975005,19.354223 13.675502,20.273112 13.926768,20.019306 z"
       style="fill:#3e98ce;fill-opacity:1;fill-rule:evenodd;stroke:none;stroke-width:1px;stroke-linecap:butt;stroke-linejoin:miter;stroke-opacity:1" />
    <path
       style="fill:#000000;fill-opacity:1;fill-rule:evenodd;stroke:none;stroke-width:1px;stroke-linecap:butt;stroke-linejoin:miter;stroke-opacity:1"
       d="M 11.237947,5.7991683 C 19.066629,2.8949798 24.95299,5.7922112 27.71606,10.849931 C 30.622287,16.169697 29.348724,24.177738 22.160221,27.580582 C 14.240342,31.329639 5.9617611,22.754177 6.502857,22.277282 C 7.0511017,23.481396 14.392392,28.809926 20.74511,26.328724 C 26.167095,24.211042 29.41603,17.57321 26.011427,10.723662 C 22.824555,4.3121572 16.604382,3.9682668 11.237947,5.7991683 z"
       id="path3309"
       sodipodi:nodetypes="csscssc" />
  </g>
</svg>
